<?xml version="1.0" encoding="UTF-8" standalone="no"?><!DOCTYPE svg PUBLIC "-//W3C//DTD SVG 1.1//EN" "http://www.w3.org/Graphics/SVG/1.1/DTD/svg11.dtd"><svg width="100%" height="100%" viewBox="0 0 240 240" version="1.1" xmlns="http://www.w3.org/2000/svg" xmlns:xlink="http://www.w3.org/1999/xlink" xml:space="preserve" xmlns:serif="http://www.serif.com/" style="fill-rule:evenodd;clip-rule:evenodd;stroke-linejoin:round;stroke-miterlimit:2;"><g><path d="M52.203,135.997c-0.002,-0.278 0.141,-0.536 0.378,-0.685c0.237,-0.148 0.534,-0.166 0.786,-0.045l32.248,15.242c1.142,0.544 2.512,0.23 3.297,-0.756l24.839,-32.444c0.214,-0.269 0.577,-0.374 0.904,-0.262c0.327,0.112 0.546,0.418 0.546,0.761l0,99.156c0,0.503 -0.283,0.964 -0.734,1.194c-0.451,0.23 -0.994,0.191 -1.406,-0.102l-59.473,-40.078c-0.706,-0.501 -1.128,-1.308 -1.132,-2.169l-0.252,-39.811Z" style="fill:#b58e4f;"/><path d="M26.872,112.008c-0.41,-0.186 -0.699,-0.562 -0.772,-1.003c-0.073,-0.441 0.08,-0.889 0.408,-1.195l25.626,-21.533c0.682,-0.637 1.646,-0.879 2.551,-0.64l55.405,15.56c0.446,0.118 0.801,0.453 0.941,0.889c0.14,0.436 0.047,0.913 -0.247,1.265l-25.025,31.841c-0.547,0.654 -1.468,0.863 -2.247,0.509l-56.639,-25.693Z" style="fill:#b58e4f;"/><path d="M187.797,135.997c0.002,-0.278 -0.141,-0.536 -0.378,-0.685c-0.237,-0.148 -0.534,-0.166 -0.786,-0.045l-32.248,15.242c-1.142,0.544 -2.512,0.23 -3.297,-0.756l-24.839,-32.444c-0.214,-0.269 -0.577,-0.374 -0.904,-0.262c-0.327,0.112 -0.546,0.418 -0.546,0.761l-0,99.156c-0,0.503 0.283,0.964 0.734,1.194c0.451,0.23 0.994,0.191 1.406,-0.102l59.473,-40.078c0.706,-0.501 1.128,-1.308 1.132,-2.169l0.252,-39.811Z" style="fill:#b58e4f;"/><path d="M213.128,112.008c0.41,-0.186 0.699,-0.562 0.772,-1.003c0.073,-0.441 -0.08,-0.889 -0.408,-1.195l-25.626,-21.533c-0.682,-0.637 -1.646,-0.879 -2.551,-0.64l-55.405,15.56c-0.446,0.118 -0.801,0.453 -0.941,0.889c-0.14,0.436 -0.047,0.913 0.247,1.265l25.025,31.841c0.547,0.654 1.468,0.863 2.247,0.509l56.639,-25.693Z" style="fill:#b58e4f;"/></g><g><path d="M76.849,51.105c-0.208,-0.238 -0.519,-0.358 -0.832,-0.322c-0.312,0.036 -0.629,0.054 -0.951,0.054c-4.757,0 -8.62,-3.907 -8.62,-8.718c0,-4.812 3.862,-8.718 8.62,-8.718c4.757,0 8.62,3.907 8.62,8.718c0,0.699 -0.082,1.38 -0.236,2.032c-0.074,0.303 0.004,0.623 0.209,0.857c1.404,1.611 6.762,7.744 6.762,7.744c7.922,-7.372 18.286,-12.092 29.579,-12.095c10.773,-0.003 21.264,4.768 29.397,12.304c0,0 5.517,-6.316 6.945,-7.952c0.205,-0.235 0.284,-0.556 0.209,-0.859c-0.156,-0.651 -0.238,-1.332 -0.238,-2.031c0,-4.812 3.862,-8.718 8.62,-8.718c4.757,0 8.62,3.907 8.62,8.718c0,4.812 -3.862,8.718 -8.62,8.718c-0.321,0 -0.639,-0.018 -0.951,-0.053c-0.313,-0.036 -0.624,0.084 -0.831,0.322c-1.519,1.738 -7.596,8.694 -7.596,8.694c5.581,7.455 7.006,12.678 7.261,22.05c0.013,0.636 -0.406,1.198 -1.014,1.361c-6.032,1.614 -34.679,9.829 -40.759,11.453c-0.685,0.183 -1.405,0.183 -2.09,0l-40.526,-11.451c-0.609,-0.163 -1.029,-0.725 -1.016,-1.362c0.248,-9.32 1.315,-14.659 6.881,-22.221c0,0 -5.945,-6.806 -7.446,-8.525Z" style="fill:#28334a;"/></g></svg>