<svg width="60" height="60" viewBox="0 0 60 60" fill="none" xmlns="http://www.w3.org/2000/svg">
<circle cx="30" cy="30" r="30" fill="white"/>
<mask id="mask0_1_2" style="mask-type:alpha" maskUnits="userSpaceOnUse" x="0" y="0" width="60" height="60">
<circle cx="30" cy="30" r="30" fill="white"/>
</mask>
<g mask="url(#mask0_1_2)">
<rect x="-21.2903" y="-15.4839" width="101.642" height="90" fill="#B9975B" fill-opacity="0.12"/>
<path d="M30 34.0299C26.9832 34.0299 24.4006 32.9557 22.2523 30.8074C20.104 28.659 19.0298 26.0765 19.0298 23.0597C19.0298 20.0429 20.104 17.4604 22.2523 15.312C24.4006 13.1637 26.9832 12.0896 30 12.0896C33.0168 12.0896 35.5993 13.1637 37.7476 15.312C39.896 17.4604 40.9701 20.0429 40.9701 23.0597C40.9701 26.0765 39.896 28.659 37.7476 30.8074C35.5993 32.9557 33.0168 34.0299 30 34.0299ZM8.05968 65.6476V48.291C8.05968 46.7369 8.46009 45.309 9.26091 44.0072C10.0617 42.7054 11.124 41.7108 12.4477 41.0233C15.2817 39.6063 18.1614 38.5441 21.0867 37.8365C24.0121 37.1289 26.9832 36.7742 30 36.7724C33.0168 36.7706 35.9879 37.1253 38.9132 37.8365C41.8386 38.5477 44.7183 39.61 47.5522 41.0233C48.8778 41.709 49.941 42.7036 50.7418 44.0072C51.5426 45.3108 51.9421 46.7388 51.9403 48.291V65.6476H8.05968Z" fill="#B9975B" fill-opacity="0.75"/>
</g>
</svg>
