<svg width="62" height="62" viewBox="0 0 62 62" fill="none" xmlns="http://www.w3.org/2000/svg">
<mask id="mask0_131_7" style="mask-type:alpha" maskUnits="userSpaceOnUse" x="0" y="0" width="62" height="62">
<circle cx="31" cy="31" r="31" fill="white"/>
</mask>
<g mask="url(#mask0_131_7)">
<rect x="-21.7463" y="-15.2687" width="105.03" height="93" fill="#8280A0" fill-opacity="0.11"/>
<path d="M5.0896 53.6717H59.6866V65.2388H5.0896V53.6717Z" fill="#8280A0"/>
<path d="M31 35.1642C27.8827 35.1642 25.2141 34.0542 22.9941 31.8343C20.7742 29.6144 19.6642 26.9457 19.6642 23.8284C19.6642 20.711 20.7742 18.0424 22.9941 15.8225C25.2141 13.6025 27.8827 12.4926 31 12.4926C34.1174 12.4926 36.786 13.6025 39.006 15.8225C41.2259 18.0424 42.3359 20.711 42.3359 23.8284C42.3359 26.9457 41.2259 29.6144 39.006 31.8343C36.786 34.0542 34.1174 35.1642 31 35.1642ZM8.32841 57.8358V49.9008C8.32841 48.2949 8.74216 46.8193 9.56968 45.4741C10.3972 44.1289 11.4949 43.1012 12.8627 42.3908C15.7912 40.9266 18.7668 39.8289 21.7897 39.0977C24.8126 38.3666 27.8827 38 31 37.9982C34.1174 37.9963 37.1875 38.3628 40.2104 39.0977C43.2333 39.8327 46.2089 40.9304 49.1374 42.3908C50.5071 43.0993 51.6057 44.127 52.4333 45.4741C53.2608 46.8212 53.6736 48.2967 53.6717 49.9008V57.8358H8.32841Z" fill="#8280A0"/>
</g>
</svg>
